name rise35.5848peak51.9257fall54.8793.mot
datacolumns 19
datarows 18
range 4.17331100000000 4.20164500000000
endheader
time	ground_force1_vx	ground_force1_vy	ground_force1_vz	ground_force1_px	ground_force1_py	ground_force1_pz	ground_force2_vx	ground_force2_vy	ground_force2_vz	ground_force2_px	ground_force2_py	ground_force2_pz	ground_torque1_x	ground_torque1_y	ground_torque1_z	ground_torque2_x	ground_torque2_y	ground_torque2_z	
4.17331100000000	62.32933100000000	827.15562299999999	60.87379300000000	0.33074800000000	0.00000000000000	0.12049200000000	0.00000000000000	0.00000000000000	0.00000000000000	0.00000000000000	0.00000000000000	0.00000000000000	0.00000000000000	25.04464000000000	0.00000000000000	0.00000000000000	0.00000000000000	0.00000000000000	
4.17497600000000	61.69052500000000	828.62808500000006	60.81960200000000	0.32986900000000	0.00000000000000	0.12048000000000	0.00000000000000	0.00000000000000	0.00000000000000	0.00000000000000	0.00000000000000	0.00000000000000	0.00000000000000	25.04926700000000	0.00000000000000	0.00000000000000	0.00000000000000	0.00000000000000	
4.17664800000000	61.04665800000000	829.88298399999996	60.75205200000000	0.32900100000000	0.00000000000000	0.12047000000000	0.00000000000000	0.00000000000000	0.00000000000000	0.00000000000000	0.00000000000000	0.00000000000000	0.00000000000000	25.04747500000000	0.00000000000000	0.00000000000000	0.00000000000000	0.00000000000000	
4.17831600000000	60.39877600000000	830.92186600000002	60.67193800000000	0.32814500000000	0.00000000000000	0.12046100000000	0.00000000000000	0.00000000000000	0.00000000000000	0.00000000000000	0.00000000000000	0.00000000000000	0.00000000000000	25.03963200000000	0.00000000000000	0.00000000000000	0.00000000000000	0.00000000000000	
4.17998300000000	59.74786000000000	831.74666100000002	60.58002600000000	0.32729900000000	0.00000000000000	0.12045400000000	0.00000000000000	0.00000000000000	0.00000000000000	0.00000000000000	0.00000000000000	0.00000000000000	0.00000000000000	25.02609200000000	0.00000000000000	0.00000000000000	0.00000000000000	0.00000000000000	
4.18165000000000	59.09482500000000	832.35967900000003	60.47705100000000	0.32646300000000	0.00000000000000	0.12044800000000	0.00000000000000	0.00000000000000	0.00000000000000	0.00000000000000	0.00000000000000	0.00000000000000	0.00000000000000	25.00718900000000	0.00000000000000	0.00000000000000	0.00000000000000	0.00000000000000	
4.18332700000000	58.44052400000000	832.76361299999996	60.36371700000000	0.32563500000000	0.00000000000000	0.12044400000000	0.00000000000000	0.00000000000000	0.00000000000000	0.00000000000000	0.00000000000000	0.00000000000000	0.00000000000000	24.98324200000000	0.00000000000000	0.00000000000000	0.00000000000000	0.00000000000000	
4.18497800000000	57.78574900000000	832.96153600000002	60.24069400000000	0.32481500000000	0.00000000000000	0.12044200000000	0.00000000000000	0.00000000000000	0.00000000000000	0.00000000000000	0.00000000000000	0.00000000000000	0.00000000000000	24.95455200000000	0.00000000000000	0.00000000000000	0.00000000000000	0.00000000000000	
4.18664300000000	57.13123000000000	832.95689600000003	60.10862000000000	0.32400200000000	0.00000000000000	0.12044200000000	0.00000000000000	0.00000000000000	0.00000000000000	0.00000000000000	0.00000000000000	0.00000000000000	0.00000000000000	24.92140400000000	0.00000000000000	0.00000000000000	0.00000000000000	0.00000000000000	
4.18831000000000	56.47763700000000	832.75351200000000	59.96810000000000	0.32319400000000	0.00000000000000	0.12044400000000	0.00000000000000	0.00000000000000	0.00000000000000	0.00000000000000	0.00000000000000	0.00000000000000	0.00000000000000	24.88406300000000	0.00000000000000	0.00000000000000	0.00000000000000	0.00000000000000	
4.18998000000000	55.82558500000000	832.35556499999996	59.81970900000000	0.32239200000000	0.00000000000000	0.12044800000000	0.00000000000000	0.00000000000000	0.00000000000000	0.00000000000000	0.00000000000000	0.00000000000000	0.00000000000000	24.84278000000000	0.00000000000000	0.00000000000000	0.00000000000000	0.00000000000000	
4.19165100000000	55.17563600000000	831.76759100000004	59.66398500000000	0.32159300000000	0.00000000000000	0.12045400000000	0.00000000000000	0.00000000000000	0.00000000000000	0.00000000000000	0.00000000000000	0.00000000000000	0.00000000000000	24.79778800000000	0.00000000000000	0.00000000000000	0.00000000000000	0.00000000000000	
4.19331400000000	54.52829600000000	830.99446999999998	59.50143900000000	0.32079600000000	0.00000000000000	0.12046100000000	0.00000000000000	0.00000000000000	0.00000000000000	0.00000000000000	0.00000000000000	0.00000000000000	0.00000000000000	24.74930200000000	0.00000000000000	0.00000000000000	0.00000000000000	0.00000000000000	
4.19497800000000	53.88402600000000	830.04141500000003	59.33254900000000	0.32000100000000	0.00000000000000	0.12047100000000	0.00000000000000	0.00000000000000	0.00000000000000	0.00000000000000	0.00000000000000	0.00000000000000	0.00000000000000	24.69752500000000	0.00000000000000	0.00000000000000	0.00000000000000	0.00000000000000	
4.19664200000000	53.24323800000000	828.91395599999998	59.15776400000000	0.31920700000000	0.00000000000000	0.12048200000000	0.00000000000000	0.00000000000000	0.00000000000000	0.00000000000000	0.00000000000000	0.00000000000000	0.00000000000000	24.64264000000000	0.00000000000000	0.00000000000000	0.00000000000000	0.00000000000000	
4.19831300000000	52.60630100000000	827.61793000000000	58.97750400000000	0.31841100000000	0.00000000000000	0.12049600000000	0.00000000000000	0.00000000000000	0.00000000000000	0.00000000000000	0.00000000000000	0.00000000000000	0.00000000000000	24.58481800000000	0.00000000000000	0.00000000000000	0.00000000000000	0.00000000000000	
4.19997600000000	51.97354600000000	826.15946199999996	58.79215900000000	0.31761300000000	0.00000000000000	0.12051200000000	0.00000000000000	0.00000000000000	0.00000000000000	0.00000000000000	0.00000000000000	0.00000000000000	0.00000000000000	24.52421700000000	0.00000000000000	0.00000000000000	0.00000000000000	0.00000000000000	
4.20164500000000	51.34526300000000	824.54494899999997	58.60209600000000	0.31681200000000	0.00000000000000	0.12052900000000	0.00000000000000	0.00000000000000	0.00000000000000	0.00000000000000	0.00000000000000	0.00000000000000	0.00000000000000	24.46097900000000	0.00000000000000	0.00000000000000	0.00000000000000	0.00000000000000	
